<svg id="Layer_1" data-name="Layer 1" xmlns="http://www.w3.org/2000/svg" viewBox="0 0 276.88 276.48"><defs><style>.cls-1{fill:#1a3a46;}</style></defs><title>twitter-dark</title><path class="cls-1" d="M281.35,161.4c4.11-3.13,7.09-7.14,7.09-11.53,0-4.2-2.74-8-6.57-11.1C273.67,136,269,129.61,269,122.17s4.3-13.54,12.34-16.4c4.11-3.13,7.08-7.14,7.08-11.53,0-4.2-2.74-8-6.57-11.1C273.67,80.37,269,74,269,66.54c0-5.89,1.49-11.1,7.77-14.39L282.9,46a16.22,16.22,0,0,0,0-22.93l-6.21-6.21a16.21,16.21,0,0,0-22.93,0l-4.6,4.6c-3.18,7.13-8.87,9.81-15.39,9.81-7.43,0-13.82-4.64-16.58-12.83-3.09-3.9-7-6.7-11.23-6.7s-8.14,2.79-11.22,6.7C192,26.66,185.59,31.3,178.15,31.3s-13.82-4.64-16.58-12.83c-3.09-3.9-7-6.7-11.23-6.7s-8.14,2.79-11.22,6.7C136.34,26.66,130,31.3,122.52,31.3s-13.82-4.64-16.58-12.83c-3.09-3.9-7-6.7-11.23-6.7s-8.14,2.79-11.22,6.7C80.71,26.66,74.34,31.3,66.9,31.3c-5.62,0-10.64-1-14-6.91l-7.49-7.5a16.22,16.22,0,0,0-22.93,0L16.31,23.1a16.22,16.22,0,0,0,0,22.93l4.8,4.8c7.4,3.1,10.54,9,10.54,15.71,0,7.46-4.7,13.87-12.92,16.62-3.8,3.06-6.5,6.9-6.5,11.08,0,4.38,3,8.39,7.06,11.52,8,2.85,12.36,9.12,12.36,16.41,0,7.46-4.7,13.87-12.91,16.62-3.81,3.06-6.51,6.89-6.51,11.08,0,4.38,3,8.39,7.05,11.52,8,2.85,12.37,9.12,12.37,16.42,0,7.47-4.71,13.87-12.93,16.62-3.8,3.06-6.49,6.89-6.49,11.07,0,4.37,2.93,8.38,7,11.5,8.05,2.84,12.41,9.12,12.41,16.43,0,6.52-2.68,12.21-9.82,15.39l-5.53,5.53a16.22,16.22,0,0,0,0,22.93l6.21,6.21a16.22,16.22,0,0,0,22.93,0l7-7.05c3.3-6.28,8.51-7.77,14.4-7.77,7.31,0,13.59,4.36,16.44,12.42,3.1,4,7.05,6.88,11.37,6.88s8.28-2.88,11.38-6.89c2.84-8.06,9.13-12.42,16.43-12.42S136.12,273,139,281.09c3.1,4,7.05,6.88,11.37,6.88s8.28-2.88,11.38-6.89c2.84-8.06,9.13-12.42,16.43-12.42s13.59,4.36,16.44,12.42c3.1,4,7.05,6.88,11.37,6.88s8.28-2.88,11.38-6.89c2.84-8.06,9.13-12.42,16.43-12.42,6.74,0,12.62,3.14,15.72,10.55l4.27,4.27a16.21,16.21,0,0,0,22.93,0l6.21-6.21a16.22,16.22,0,0,0,0-22.93l-7-7c-5.9-3.31-6.92-8.33-6.92-14,0-7.31,4.35-13.59,12.42-16.43,4.08-3.12,7-7.13,7-11.5,0-4.18-2.69-8-6.48-11.07-8.23-2.75-12.94-9.16-12.94-16.62C269,170.51,273.32,164.26,281.35,161.4ZM75.52,93.2H224a9.88,9.88,0,0,1,2.84.46L171.61,141l-7.34,6-14.5,11.79L135.31,147,128,141,72.67,93.66A9.89,9.89,0,0,1,75.52,93.2ZM66,200.21a9.81,9.81,0,0,1-.58-3.22V103.31a9.89,9.89,0,0,1,.52-3.06L121,147.39Zm158,6.89H75.52a9.88,9.88,0,0,1-2.72-.42l55.55-53.31,21.43,17.44,21.46-17.47,55.53,53.34A9.8,9.8,0,0,1,224,207.1ZM234.14,197a10,10,0,0,1-.58,3.22l-55-52.85,55-47.12a9.88,9.88,0,0,1,.53,3.06V197Z" transform="translate(-11.56 -11.76)"/></svg>