<?xml version="1.0" encoding="utf-8"?>
<!-- Generator: Adobe Illustrator 18.1.1, SVG Export Plug-In . SVG Version: 6.00 Build 0)  -->
<svg version="1.1" id="Layer_1" xmlns="http://www.w3.org/2000/svg" xmlns:xlink="http://www.w3.org/1999/xlink" x="0px" y="0px"
	 viewBox="0 0 249.8 108" enable-background="new 0 0 249.8 108" xml:space="preserve">
<circle fill="#DD3D26" cx="195.8" cy="54" r="54"/>
<g>
	<path fill="#FFFFFF" d="M162.8,73.9c3.8-1.2,15.2-6.6,17.7-15.4c-1.4,0.8-5.4,2.2-9.2,2.2c-8,0-16.4-5.9-16.4-17.4
		c0-10.1,8.3-18.4,18.1-18.4c12.6,0,19.1,10.1,19.1,22.2c0,23.4-19.8,32.8-26.7,35c-1.1,0.3-1.9-0.1-2.2-1.1l-1.8-4.7
		C160.9,75.3,161.3,74.4,162.8,73.9z M182.5,45.9c0-5.5-2.9-11.8-9.4-11.8c-5.1,0-9.2,4.3-9.2,9.4c0,5.1,4.1,9.4,9.2,9.4
		C178.5,52.9,181.6,48.8,182.5,45.9z"/>
	<path fill="#FFFFFF" d="M196.5,53.5c0-17.6,7.4-28.1,20.2-28.1S237,35.9,237,53.5s-7.4,28.1-20.2,28.1S196.5,71.1,196.5,53.5z
		 M226.4,53.5c0-11.9-3.5-18.6-9.7-18.6c-6.2,0-9.7,6.7-9.7,18.6c0,12,3.5,18.6,9.7,18.6C222.9,72.1,226.4,65.5,226.4,53.5z"/>
</g>
<g>
	<path fill="#1C3B46" d="M28.1,74.1c0.4-5.5,0.5-11.9,0.1-16.5c-0.3-4.8-3.6-6-5.6-6c-4.9,0-11.1,5.2-11.2,9.1
		c-0.2,7.7-0.2,11.1,0.1,13.4c0.1,1.3,0.7,2.7,3.8,2.4c1.2-0.1,1.7,0.7,1.7,1.6c0,0.9-0.6,1.9-1.7,1.8c-4.8-0.1-8.4-0.3-13.4,0
		C0.6,79.9,0,79,0,78.1c0-0.8,0.5-1.6,1.5-1.6c1.8,0.1,4.1-0.1,4.2-2.4c0.8-22.5,0.3-38.9-0.3-40.5c-0.4-0.8-1-0.6-2.7-0.3
		c-1,0.1-1.5-0.9-1.5-1.9C1,30.7,1.4,30,2.2,30c4.5-0.3,5.4-1.3,8.5-2.2c0.3,0.3,1.5,0.6,1.3,3c-0.7,4-0.9,15.6-0.6,21.9
		c0,0.8,0.5,1.2,1,0.6c2-2.4,6.6-6.2,12.3-6.2c6.5,0,9.3,5.2,9.3,11.4c0,7.3-0.5,11.9-0.1,15.9c0.1,1.3,0.6,2.5,3.8,2.2
		c1.2-0.1,1.8,0.8,1.8,1.6c0,0.9-0.7,1.8-1.8,1.8c-4.8,0-8.4-0.3-12,0C24.2,80,23.5,79,23.5,78c0-0.8,0.5-1.6,1.5-1.5
		C26.7,76.7,27.9,76.2,28.1,74.1z"/>
	<path fill="#1C3B46" d="M57.8,76.5c1.3-0.1,1.9,0.7,1.9,1.6c0,0.9-0.7,1.9-1.9,1.8c-5.2-0.3-8.2-0.4-14.4,0.1c-1.3,0.1-2-0.9-2-1.9
		c0-0.9,0.6-1.7,1.5-1.6c1.7,0.2,3.5,0.5,4.2-1.9c0.8-2.6,0.9-21.2-0.1-22.9c-0.6-1.3-1.4-1-3.6-0.7c-0.9,0.2-1.5-0.8-1.5-1.7
		c0-0.8,0.4-1.6,1.5-1.6c4.7-0.1,5.8-0.1,9-1c0.3,0.1,1.3,0.3,1.1,1.7c-0.6,5.8-0.2,22.6,0.2,26C53.8,75.8,54.5,76.9,57.8,76.5z
		 M49.7,31.8c2.7,0,4,1.3,4,3.6c0,2.6-1.3,4.5-4,4.5c-2.8,0-4.2-1.7-4.2-4C45.5,33.2,47.3,31.8,49.7,31.8z"/>
	<path fill="#1C3B46" d="M68.7,66.6c0-0.7-1.2-1.3-2.4-2.6c-1.3-1.2-2.9-3.4-2.9-6.8c0-6.3,5.3-10.2,12.7-10.2
		c2.3,0,4.7,0.9,6.9,1.1c2.7,0.2,6.7-0.5,8.2-0.7c1.1-0.1,1.5,0.6,1.5,1.5c0,1.1-0.6,2.4-1.1,2.7c-1.1,0.6-5.1-0.3-5.8-0.3
		c-0.3,0-0.8,0.3-0.4,0.8c0.6,0.8,2.1,2.9,2.1,5.6c0,5.9-6,9.6-11.7,9.6c-3.7,0-6.7,2.2-6.7,2.7c0,0.6,0.6,1,1.7,1.4
		c3.4,1.2,10.8,2.5,16.4,4.7c2.9,1.1,4.6,3.8,4.6,6.5c0,6.2-7.6,11.1-17,11.1c-9.5,0-14.5-4.4-14.5-8.4c0-4.2,5.8-6.8,9.5-8.1
		c0.6-0.2,1-0.8,0.2-1.1c-2.8-1.2-7.1-2.3-7.1-4.7c0-1.5,5.4-4,5.8-4.9C68.7,66.8,68.7,66.7,68.7,66.6z M66.6,84.5
		c0,3.5,3.1,6.6,9.5,6.6c5.2,0,9.5-2.9,9.5-6.3c0-2.2-1.2-3.6-3.1-4.5c-1.8-0.8-5.3-1.7-7.9-1.7C70.4,78.6,66.6,81.4,66.6,84.5z
		 M69.1,57.1c0,3.7,2.3,8,7,8c3.9,0,5.8-3.3,5.8-6.5c0-4.2-2.8-8.8-7-8.8C71.6,49.7,69.1,52.5,69.1,57.1z"/>
	<path fill="#1C3B46" d="M121.7,74.1c0.4-5.5,0.5-11.9,0.1-16.5c-0.3-4.8-3.6-6-5.6-6c-4.9,0-11.1,5.2-11.2,9.1
		c-0.2,7.7-0.2,11.1,0.1,13.4c0.1,1.3,0.7,2.7,3.8,2.4c1.2-0.1,1.7,0.7,1.7,1.6c0,0.9-0.6,1.9-1.7,1.8c-4.8-0.1-8.4-0.3-13.4,0
		c-1.3,0.1-1.9-0.9-1.9-1.8c0-0.8,0.5-1.6,1.5-1.6c1.8,0.1,4.1-0.1,4.2-2.4c0.8-22.5,0.3-38.9-0.3-40.5c-0.4-0.8-1-0.6-2.7-0.3
		c-1,0.1-1.5-0.9-1.5-1.9c0-0.8,0.3-1.4,1.2-1.5c4.5-0.3,5.4-1.3,8.5-2.2c0.3,0.3,1.5,0.6,1.3,3c-0.7,4-0.9,15.6-0.6,21.9
		c0,0.8,0.5,1.2,1,0.6c2-2.4,6.6-6.2,12.3-6.2c6.5,0,9.3,5.2,9.3,11.4c0,7.3-0.5,11.9-0.1,15.9c0.1,1.3,0.6,2.5,3.8,2.2
		c1.2-0.1,1.8,0.8,1.8,1.6c0,0.9-0.7,1.8-1.8,1.8c-4.8,0-8.4-0.3-12,0c-1.5,0.1-2.2-0.9-2.2-1.9c0-0.8,0.5-1.6,1.5-1.5
		C120.3,76.7,121.5,76.2,121.7,74.1z"/>
</g>
</svg>
