<?xml version="1.0" encoding="utf-8"?>
<!-- Generator: Adobe Illustrator 19.2.1, SVG Export Plug-In . SVG Version: 6.00 Build 0)  -->
<svg version="1.1" id="Layer_1" xmlns="http://www.w3.org/2000/svg" xmlns:xlink="http://www.w3.org/1999/xlink" x="0px" y="0px"
	 viewBox="0 0 270.2 232.5" style="enable-background:new 0 0 270.2 232.5;" xml:space="preserve">
<style type="text/css">
	.st0{fill:#1A3A46;}
</style>
<title>twitter-dark</title>
<path class="st0" d="M232.7,55.5l-71.1-35.6c-0.3-0.2-0.7-0.2-1-0.2h-0.1c-0.9,0-1.7,0.4-2.2,1.2l-43.8,71.2l48.9,79.5l70-113.7
	c0.5-0.8,0.3-1.8-0.5-2.3C232.8,55.5,232.7,55.5,232.7,55.5z"/>
<polygon class="st0" points="91.3,67 91.3,143.8 159.5,177.9 "/>
<path class="st0" d="M165.5,180.8l62.6,31.3c3.4,1.7,6.2,0,6.2-3.8V68.9L165.5,180.8z"/>
<path class="st0" d="M83.7,55.8L18.1,23l-4.2-2.1c-0.5-0.3-1.1-0.4-1.7-0.4c-0.7,0-1.4,0.3-1.8,0.8C10,22,9.8,22.7,9.8,23.5v149.7
	c0.2,2.8,1.7,5.3,4.2,6.7l64.5,32.2c0.8,0.4,1.6,0.6,2.5,0.7c2.2,0,3.7-1.7,3.7-4.5v-151C84.6,56.7,84.3,56.1,83.7,55.8z"/>
</svg>
