<?xml version="1.0" encoding="utf-8"?>
<!-- Generator: Adobe Illustrator 18.1.1, SVG Export Plug-In . SVG Version: 6.00 Build 0)  -->
<!DOCTYPE svg PUBLIC "-//W3C//DTD SVG 1.1//EN" "http://www.w3.org/Graphics/SVG/1.1/DTD/svg11.dtd">
<svg version="1.1" id="Layer_1" xmlns="http://www.w3.org/2000/svg" xmlns:xlink="http://www.w3.org/1999/xlink" x="0px" y="0px"
	 viewBox="-105 363 300 300" enable-background="new -105 363 300 300" xml:space="preserve">
<path fill="#DE3907" d="M182,428c-10.1,4.5-20.9,7.5-32.3,8.9c11.6-7,20.5-18,24.7-31.1c-10.9,6.4-22.9,11.1-35.7,13.6
	c-10.3-10.9-24.9-17.8-41-17.8c-31,0-56.2,25.2-56.2,56.2c0,4.4,0.5,8.7,1.5,12.8C-3.8,468.3-45.2,446-72.9,412
	c-4.8,8.3-7.6,18-7.6,28.3c0,19.5,9.9,36.7,25,46.8c-9.2-0.3-17.9-2.8-25.5-7c0,0.2,0,0.5,0,0.7c0,27.2,19.4,50,45.1,55.1
	c-4.7,1.3-9.7,2-14.8,2c-3.6,0-7.1-0.4-10.6-1c7.2,22.3,27.9,38.6,52.5,39c-19.2,15.1-43.5,24.1-69.8,24.1c-4.5,0-9-0.3-13.4-0.8
	c24.9,16,54.4,25.3,86.2,25.3c103.4,0,159.9-85.7,159.9-159.9c0-2.4-0.1-4.9-0.2-7.3C164.9,449.2,174.5,439.3,182,428z"/>
</svg>
